<svg xmlns="http://www.w3.org/2000/svg" viewBox="0 0 64 64"><rect width="64" height="64" rx="14" fill="#141313"/><g fill="#f7f5f1"><path transform="translate(13.41 43.58) scale(0.01685 -0.01685)" d="M312.099365234375 -26Q238.1495361328125 -26 167.69970703125 -1.162567138671875Q97.2498779296875 23.67486572265625 40 73.07476806640625L172.77374267578125 232.92327880859375Q198.39892578125 211.87310791015625 233.4490966796875 196.93557739257812Q268.499267578125 181.998046875 312.099365234375 181.998046875Q372.32464599609375 181.998046875 421.67486572265625 213.5482177734375Q471.02508544921875 245.098388671875 500.8502197265625 296.4611511230469Q530.6753540039062 347.82391357421875 530.6753540039062 407.47418212890625V1400H738.6734008789062V407.47418212890625Q738.6734008789062 290.12445068359375 680.99853515625 191.7496337890625Q623.3236694335938 93.37481689453125 526.6738891601562 33.687408447265625Q430.02410888671875 -26 312.099365234375 -26Z"/><path transform="translate(27.21 43.58) scale(0.01685 -0.01685)" d="M577.5243530273438 0 69.52435302734375 1400H289.77227783203125L708.2730102539062 247.39794921875L1127.9237670898438 1400H1348.1716918945312L839.5966796875 0Z"/></g></svg>
